<svg width="88" height="18" viewBox="0 0 88 18" fill="none" xmlns="http://www.w3.org/2000/svg">
<g clip-path="url(#clip0_6014_64134)">
<path d="M4.40179 6.07124L1.02658 6.90617C0.550609 7.02391 0.360312 7.5979 0.671675 7.97667L3.49292 11.4087C3.49498 11.4112 3.49598 11.4144 3.49573 11.4177L3.14435 15.8915C3.10492 16.3935 3.61493 16.7563 4.07624 16.5544L7.99137 14.8411C7.9942 14.8398 7.99727 14.8392 8.00036 14.8392C8.00346 14.8392 8.00652 14.8398 8.00936 14.8411L11.9245 16.5544C12.3858 16.7563 12.8958 16.3935 12.8564 15.8915L12.526 11.6854C12.5125 11.5136 12.5661 11.3433 12.6754 11.2102L15.3301 7.97652C15.6411 7.59769 15.4507 7.02405 14.9749 6.90635L10.7931 5.87189C10.79 5.87113 10.7871 5.86975 10.7846 5.86783C10.7821 5.86596 10.7801 5.86361 10.7786 5.86092L8.53202 1.93516C8.28606 1.50536 7.67394 1.48425 7.39896 1.89609L4.79614 5.79427C4.70382 5.93254 4.56317 6.03132 4.40179 6.07124Z" fill="#FFCD00"/>
</g>
<g clip-path="url(#clip1_6014_64134)">
<path d="M22.4018 6.07124L19.0266 6.90617C18.5506 7.02391 18.3603 7.5979 18.6717 7.97667L21.4929 11.4087C21.495 11.4112 21.496 11.4144 21.4957 11.4177L21.1444 15.8915C21.1049 16.3935 21.6149 16.7563 22.0762 16.5544L25.9914 14.8411C25.9942 14.8398 25.9973 14.8392 26.0004 14.8392C26.0035 14.8392 26.0065 14.8398 26.0094 14.8411L29.9245 16.5544C30.3858 16.7563 30.8958 16.3935 30.8564 15.8915L30.526 11.6854C30.5125 11.5136 30.5661 11.3433 30.6754 11.2102L33.3301 7.97652C33.6411 7.59769 33.4507 7.02405 32.9749 6.90635L28.7931 5.87189C28.79 5.87113 28.7871 5.86975 28.7846 5.86783C28.7821 5.86596 28.7801 5.86361 28.7786 5.86092L26.532 1.93516C26.2861 1.50536 25.6739 1.48425 25.399 1.89609L22.7961 5.79427C22.7038 5.93254 22.5632 6.03132 22.4018 6.07124Z" fill="#FFCD00"/>
</g>
<g clip-path="url(#clip2_6014_64134)">
<path d="M40.4018 6.07124L37.0266 6.90617C36.5506 7.02391 36.3603 7.5979 36.6717 7.97667L39.4929 11.4087C39.495 11.4112 39.496 11.4144 39.4957 11.4177L39.1444 15.8915C39.1049 16.3935 39.6149 16.7563 40.0762 16.5544L43.9914 14.8411C43.9942 14.8398 43.9973 14.8392 44.0004 14.8392C44.0035 14.8392 44.0065 14.8398 44.0094 14.8411L47.9245 16.5544C48.3858 16.7563 48.8958 16.3935 48.8564 15.8915L48.526 11.6854C48.5125 11.5136 48.5661 11.3433 48.6754 11.2102L51.3301 7.97652C51.6411 7.59769 51.4507 7.02405 50.9749 6.90635L46.7931 5.87189C46.79 5.87113 46.7871 5.86975 46.7846 5.86783C46.7821 5.86596 46.7801 5.86361 46.7786 5.86092L44.532 1.93516C44.2861 1.50536 43.6739 1.48425 43.399 1.89609L40.7961 5.79427C40.7038 5.93254 40.5632 6.03132 40.4018 6.07124Z" fill="#FFCD00"/>
</g>
<g clip-path="url(#clip3_6014_64134)">
<path d="M58.4018 6.07124L55.0266 6.90617C54.5506 7.02391 54.3603 7.5979 54.6717 7.97667L57.4929 11.4087C57.495 11.4112 57.496 11.4144 57.4957 11.4177L57.1444 15.8915C57.1049 16.3935 57.6149 16.7563 58.0762 16.5544L61.9914 14.8411C61.9942 14.8398 61.9973 14.8392 62.0004 14.8392C62.0035 14.8392 62.0065 14.8398 62.0094 14.8411L65.9245 16.5544C66.3858 16.7563 66.8958 16.3935 66.8564 15.8915L66.526 11.6854C66.5125 11.5136 66.5661 11.3433 66.6754 11.2102L69.3301 7.97652C69.6411 7.59769 69.4507 7.02405 68.9749 6.90635L64.7931 5.87189C64.79 5.87113 64.7871 5.86975 64.7846 5.86783C64.7821 5.86596 64.7801 5.86361 64.7786 5.86092L62.532 1.93516C62.2861 1.50536 61.6739 1.48425 61.399 1.89609L58.7961 5.79427C58.7038 5.93254 58.5632 6.03132 58.4018 6.07124Z" fill="#FAC515"/>
</g>
<g clip-path="url(#clip4_6014_64134)">
<path d="M76.4018 6.07124L73.0266 6.90617C72.5506 7.02391 72.3603 7.5979 72.6717 7.97667L75.4929 11.4087C75.495 11.4112 75.496 11.4144 75.4957 11.4177L75.1444 15.8915C75.1049 16.3935 75.6149 16.7563 76.0762 16.5544L79.9914 14.8411C79.9942 14.8398 79.9973 14.8392 80.0004 14.8392C80.0035 14.8392 80.0065 14.8398 80.0094 14.8411L83.9245 16.5544C84.3858 16.7563 84.8958 16.3935 84.8564 15.8915L84.526 11.6854C84.5125 11.5136 84.5661 11.3433 84.6754 11.2102L87.3301 7.97652C87.6411 7.59769 87.4507 7.02405 86.9749 6.90635L82.7931 5.87189C82.79 5.87113 82.7871 5.86975 82.7846 5.86783C82.7821 5.86596 82.7801 5.86361 82.7786 5.86092L80.532 1.93516C80.2861 1.50536 79.6739 1.48425 79.399 1.89609L76.7961 5.79427C76.7038 5.93254 76.5632 6.03132 76.4018 6.07124Z" fill="#FAC515"/>
</g>
<defs>
<clipPath id="clip0_6014_64134">
<rect width="16" height="16" fill="white" transform="translate(0 1)"/>
</clipPath>
<clipPath id="clip1_6014_64134">
<rect width="16" height="16" fill="white" transform="translate(18 1)"/>
</clipPath>
<clipPath id="clip2_6014_64134">
<rect width="16" height="16" fill="white" transform="translate(36 1)"/>
</clipPath>
<clipPath id="clip3_6014_64134">
<rect width="16" height="16" fill="white" transform="translate(54 1)"/>
</clipPath>
<clipPath id="clip4_6014_64134">
<rect width="16" height="16" fill="white" transform="translate(72 1)"/>
</clipPath>
</defs>
</svg>
